# xmcd CD database file
#
# Track frame offsets:
#	150
#	14766
#	27351
#	38769
#	52349
#	62818
#	77125
#	90481
#	103002
#	116554
#	131590
#	144915
#	157760
#
# Disc length: 2249 seconds
#
# Revision: 1
# Processed by: cddbd v1.5.2PL0 Copyright (c) Steve Scherf et al.
# Submitted via: CDex 1.51
#
DISCID=aa08c70d
DTITLE=Various Jazz - The Jazz Ladies
DYEAR=2007
DGENRE=Jazz
TTITLE0=Billie Holiday - Baby Get Lost
TTITLE1=Ella Fitzgerald - Cry You Out Of My Heart
TTITLE2=Dinah Washington - Walkin' And Talkin'
TTITLE3=Julia Lee - Show Me Misouri Blues
TTITLE4=Myra Taylor - Tell Your Best Friend Nothing
TTITLE5=Dinah Washington - I Want To Cry
TTITLE6=Vivian Greene - Red Light
TTITLE7=Helen Humes - Jet Propelled Papa
TTITLE8=Memphis Minnie - Fashion Plate Daddy
TTITLE9=Dinah Washington - I've Got Bad News Baby
TTITLE10=Myra Taylor With Jimmy Keith's Orchestra - Take It Easy, Greasy
TTITLE11=Myra Taylor With Jimmy Keith's Orchestra - The Spider And The Fly
TTITLE12=Cleo Brown - Boogie Woogie
EXTD=YEAR: 2007
EXTT0=
EXTT1=
EXTT2=
EXTT3=
EXTT4=
EXTT5=
EXTT6=
EXTT7=
EXTT8=
EXTT9=
EXTT10=
EXTT11=
EXTT12=
PLAYORDER=
